<?xml version="1.0" encoding="utf-8"?>
<!-- Generator: Adobe Illustrator 22.1.0, SVG Export Plug-In . SVG Version: 6.00 Build 0)  -->
<svg version="1.1" id="Layer_1" xmlns="http://www.w3.org/2000/svg" xmlns:xlink="http://www.w3.org/1999/xlink" x="0px" y="0px"
	 viewBox="0 0 44.8 48" style="enable-background:new 0 0 44.8 48;" xml:space="preserve">
<style type="text/css">
	.st0{fill:#555555;}
</style>
<g id="calendar_1_" transform="translate(-2)">
	<path id="Path_1090" class="st0" d="M46,3.2h-5.6V0.8C40.4,0.4,40,0,39.6,0H34c-0.4,0-0.8,0.4-0.8,0.8v2.4H15.6V0.8
		c0-0.4-0.4-0.8-0.8-0.8c0,0,0,0,0,0H9.2C8.8,0,8.4,0.4,8.4,0.8c0,0,0,0,0,0v2.4H2.8C2.4,3.2,2,3.6,2,4v43.2C2,47.6,2.4,48,2.8,48
		H46c0.4,0,0.8-0.4,0.8-0.8V4C46.8,3.6,46.4,3.2,46,3.2z M34.8,1.6h4v4.8h-4V1.6z M10,1.6h4v4.8h-4V1.6z M3.6,4.8h4.8v2.4
		C8.4,7.6,8.8,8,9.2,8l0,0h5.6c0.4,0,0.8-0.4,0.8-0.8c0,0,0,0,0,0V4.8h17.6v2.4C33.2,7.6,33.6,8,34,8h5.6c0.4,0,0.8-0.4,0.8-0.8V4.8
		h4.8V12H3.6V4.8z M3.6,46.4V13.6h41.6v32.8L3.6,46.4z"/>
	<path id="Path_1091" class="st0" d="M30.8,18.4H9.2v23.2h30.4V18.4H30.8z M25.2,20h5.6v5.6h-5.6V20z M30.8,32.8h-5.6v-5.6h5.6V32.8
		z M18,27.2h5.6v5.6H18V27.2z M18,20h5.6v5.6H18V20z M10.8,20h5.6v5.6h-5.6L10.8,20z M10.8,27.2h5.6v5.6h-5.6L10.8,27.2z M16.4,40
		h-5.6v-5.6h5.6L16.4,40z M23.6,40H18v-5.6h5.6L23.6,40z M30.8,40h-5.6v-5.6h5.6V40z M38,40h-5.6v-5.6H38V40z M38,32.8h-5.6v-5.6H38
		V32.8z M38,20v5.6h-5.6V20L38,20z"/>
</g>
</svg>
